<svg xmlns="http://www.w3.org/2000/svg" xmlns:xlink="http://www.w3.org/1999/xlink" width="200" zoomAndPan="magnify" viewBox="0 0 150 149.999998" height="200" preserveAspectRatio="xMidYMid meet" version="1.0"><defs><filter x="0%" y="0%" width="100%" height="100%" id="5f17983df7"><feColorMatrix values="0 0 0 0 1 0 0 0 0 1 0 0 0 0 1 0 0 0 1 0" color-interpolation-filters="sRGB"/></filter><mask id="7952d77aa8"><g filter="url(#5f17983df7)"><rect x="-15" width="180" fill="#000000" y="-15" height="179.999997" fill-opacity="0.46"/></g></mask><clipPath id="497149172b"><path d="M 0.398438 0.359375 L 92.800781 0.359375 L 92.800781 69 L 0.398438 69 Z M 0.398438 0.359375 " clip-rule="nonzero"/></clipPath><clipPath id="8190431531"><rect x="0" width="93" y="0" height="69"/></clipPath><mask id="6f463f7fbb"><g filter="url(#5f17983df7)"><rect x="-15" width="180" fill="#000000" y="-15" height="179.999997" fill-opacity="0.46"/></g></mask><clipPath id="fe3282a3ab"><path d="M 1 0.554688 L 93.480469 0.554688 L 93.480469 69.359375 L 1 69.359375 Z M 1 0.554688 " clip-rule="nonzero"/></clipPath><clipPath id="af748a30ec"><rect x="0" width="94" y="0" height="70"/></clipPath><clipPath id="0f1beaf877"><path d="M 19 87 L 90.191406 87 L 90.191406 119.855469 L 19 119.855469 Z M 19 87 " clip-rule="nonzero"/></clipPath><clipPath id="33f7d07041"><path d="M 18.191406 55.355469 L 82 55.355469 L 82 108 L 18.191406 108 Z M 18.191406 55.355469 " clip-rule="nonzero"/></clipPath><clipPath id="6226d8ffc5"><path d="M 73.324219 75 L 116.824219 75 L 116.824219 78.488281 L 73.324219 78.488281 Z M 73.324219 75 " clip-rule="nonzero"/></clipPath><clipPath id="0c98b07da8"><path d="M 73.324219 58 L 84 58 L 84 73 L 73.324219 73 Z M 73.324219 58 " clip-rule="nonzero"/></clipPath><clipPath id="1a6e50cd24"><path d="M 106 31.988281 L 116.824219 31.988281 L 116.824219 73 L 106 73 Z M 106 31.988281 " clip-rule="nonzero"/></clipPath></defs><g mask="url(#7952d77aa8)"><g transform="matrix(1, 0, 0, 1, 44, 57)"><g clip-path="url(#8190431531)"><g clip-path="url(#497149172b)"><path fill="#667ab0" d="M 0.695312 11.75 C 0.179688 20.582031 1.183594 22.214844 0.613281 31.046875 C 0.582031 31.554688 1.058594 56.28125 3.234375 58.652344 C 6.089844 61.769531 5.417969 66.476562 14.5 67.144531 C 22.933594 67.761719 32.988281 69.253906 43.449219 68.816406 C 52.476562 68.4375 60.066406 69.007812 67.527344 68.839844 C 77.695312 68.617188 84.441406 69.5 87.730469 66.382812 C 96.964844 57.636719 91.839844 9.6875 84.980469 4.617188 C 82.359375 2.675781 73.324219 1.90625 54.707031 1.855469 C 47.453125 1.839844 36.691406 0.332031 28.605469 0.507812 C 16.933594 0.769531 8.785156 2.8125 7.558594 3.382812 C 4.367188 4.863281 0.808594 8.015625 0.695312 11.75 Z M 0.695312 11.75 " fill-opacity="1" fill-rule="evenodd"/></g></g></g></g><g mask="url(#6f463f7fbb)"><g transform="matrix(1, 0, 0, 1, 3, 24)"><g clip-path="url(#af748a30ec)"><g clip-path="url(#fe3282a3ab)"><path fill="#667ab0" d="M 1.199219 11.996094 C 0.683594 20.828125 1.683594 22.460938 1.117188 31.292969 C 1.082031 31.800781 1.5625 56.527344 3.734375 58.898438 C 6.589844 62.015625 5.921875 66.722656 15 67.390625 C 23.4375 68.007812 33.492188 69.5 43.953125 69.0625 C 52.980469 68.683594 60.566406 69.253906 68.03125 69.085938 C 78.195312 68.863281 84.941406 69.746094 88.230469 66.628906 C 97.46875 57.882812 92.34375 9.933594 85.484375 4.863281 C 82.859375 2.921875 73.828125 2.152344 55.207031 2.101562 C 47.957031 2.082031 37.191406 0.574219 29.105469 0.753906 C 17.433594 1.015625 9.285156 3.058594 8.058594 3.628906 C 4.867188 5.109375 1.3125 8.261719 1.199219 11.996094 Z M 1.199219 11.996094 " fill-opacity="1" fill-rule="evenodd"/></g></g></g></g><g clip-path="url(#0f1beaf877)"><path fill="#f15a24" d="M 89.539062 87.074219 L 80.339844 87.238281 C 79.910156 87.246094 79.660156 87.730469 79.910156 88.082031 L 81.332031 90.109375 C 81.351562 90.136719 81.34375 90.171875 81.316406 90.191406 L 50.792969 111.78125 C 50.753906 111.808594 50.699219 111.78125 50.699219 111.730469 L 50.699219 95.28125 C 50.699219 95.066406 50.585938 94.863281 50.398438 94.753906 C 50.210938 94.644531 49.976562 94.636719 49.785156 94.742188 L 19.597656 111.003906 C 19.453125 111.082031 19.347656 111.214844 19.300781 111.371094 C 19.253906 111.527344 19.273438 111.695312 19.351562 111.839844 L 20.886719 114.648438 C 21.046875 114.949219 21.421875 115.058594 21.722656 114.898438 L 46.160156 101.75 C 46.203125 101.726562 46.25 101.753906 46.25 101.800781 L 46.25 119.195312 C 46.25 119.371094 46.304688 119.550781 46.429688 119.675781 C 46.554688 119.792969 46.710938 119.851562 46.867188 119.851562 C 46.992188 119.851562 47.121094 119.816406 47.226562 119.738281 L 83.867188 93.824219 C 83.894531 93.804688 83.933594 93.808594 83.953125 93.835938 L 85.796875 96.464844 C 86.042969 96.816406 86.585938 96.75 86.742188 96.347656 L 90.050781 87.804688 C 90.1875 87.445312 89.921875 87.066406 89.539062 87.074219 " fill-opacity="1" fill-rule="nonzero"/></g><path fill="#009245" d="M 36.582031 77.117188 L 36.582031 100.035156 C 36.582031 100.054688 36.570312 100.078125 36.550781 100.085938 L 27.832031 104.808594 C 27.792969 104.828125 27.746094 104.800781 27.746094 104.753906 L 27.746094 77.117188 C 27.746094 77.082031 27.769531 77.058594 27.804688 77.058594 L 36.519531 77.058594 C 36.554688 77.058594 36.582031 77.082031 36.582031 77.117188 " fill-opacity="1" fill-rule="nonzero"/><path fill="#e52e97" d="M 59.566406 82.78125 L 59.566406 103.582031 C 59.566406 103.601562 59.554688 103.621094 59.539062 103.632812 L 52.402344 108.679688 C 52.363281 108.707031 52.308594 108.679688 52.308594 108.632812 L 52.308594 95.28125 C 52.308594 94.507812 51.890625 93.777344 51.21875 93.378906 C 51.078125 93.296875 50.925781 93.226562 50.773438 93.179688 C 50.746094 93.171875 50.730469 93.148438 50.730469 93.121094 L 50.730469 82.78125 C 50.730469 82.75 50.757812 82.722656 50.789062 82.722656 L 59.503906 82.722656 C 59.539062 82.722656 59.566406 82.75 59.566406 82.78125 " fill-opacity="1" fill-rule="nonzero"/><path fill="#f15a24" d="M 48.074219 69.117188 L 48.074219 93.8125 C 48.074219 93.835938 48.0625 93.855469 48.042969 93.867188 L 39.328125 98.585938 C 39.289062 98.605469 39.238281 98.578125 39.238281 98.53125 L 39.238281 69.117188 C 39.238281 69.085938 39.265625 69.058594 39.296875 69.058594 L 48.011719 69.058594 C 48.046875 69.058594 48.074219 69.085938 48.074219 69.117188 " fill-opacity="1" fill-rule="nonzero"/><g clip-path="url(#33f7d07041)"><path fill="#1b75bc" d="M 21.40625 105.730469 L 21.40625 64.078125 C 21.40625 61.035156 23.890625 58.5625 26.945312 58.5625 L 73.140625 58.5625 C 76.199219 58.5625 78.683594 61.035156 78.683594 64.078125 L 78.683594 82.59375 C 78.683594 83.476562 79.402344 84.195312 80.289062 84.195312 C 81.179688 84.195312 81.898438 83.476562 81.898438 82.59375 L 81.898438 64.078125 C 81.898438 59.269531 77.96875 55.359375 73.140625 55.359375 L 26.945312 55.359375 C 22.117188 55.359375 18.191406 59.269531 18.191406 64.078125 L 18.191406 105.730469 C 18.191406 106.617188 18.910156 107.332031 19.796875 107.332031 C 20.6875 107.332031 21.40625 106.617188 21.40625 105.730469 Z M 71.921875 64.496094 L 71.921875 94.84375 C 71.921875 94.863281 71.914062 94.878906 71.898438 94.890625 L 63.179688 101.058594 C 63.140625 101.085938 63.085938 101.058594 63.085938 101.007812 L 63.085938 64.496094 C 63.085938 64.464844 63.113281 64.4375 63.144531 64.4375 L 71.863281 64.4375 C 71.894531 64.4375 71.921875 64.464844 71.921875 64.496094 " fill-opacity="1" fill-rule="nonzero"/></g><g clip-path="url(#6226d8ffc5)"><path fill="#5e17eb" d="M 73.332031 75.382812 L 116.726562 75.382812 L 116.726562 78.722656 L 73.332031 78.722656 Z M 73.332031 75.382812 " fill-opacity="1" fill-rule="nonzero"/></g><g clip-path="url(#0c98b07da8)"><path fill="#5e17eb" d="M 73.332031 58.691406 L 83.34375 58.691406 L 83.34375 72.046875 L 73.332031 72.046875 Z M 73.332031 58.691406 " fill-opacity="1" fill-rule="nonzero"/></g><path fill="#5e17eb" d="M 90.023438 45.339844 L 100.035156 45.339844 L 100.035156 72.046875 L 90.023438 72.046875 Z M 90.023438 45.339844 " fill-opacity="1" fill-rule="nonzero"/><g clip-path="url(#1a6e50cd24)"><path fill="#5e17eb" d="M 106.710938 31.988281 L 116.726562 31.988281 L 116.726562 72.046875 L 106.710938 72.046875 Z M 106.710938 31.988281 " fill-opacity="1" fill-rule="nonzero"/></g></svg>